# xmcd CD database file
#
# Track frame offsets:
#	150
#	16543
#	20520
#	37535
#	49535
#	64343
#	82982
#	86497
#	108474
#	143049
#	163006
#	174996
#	184408
#	188791
#	196688
#	199606
#	203848
#	213361
#	218918
#	231383
#
# Disc length: 3439 seconds
#
# Revision: 3
# Processed by: cddbd v1.5.2PL0 Copyright (c) Steve Scherf et al.
# Submitted via: CDex 1.51
#
DISCID=060d6d14
DTITLE=Niccolo Paganini - Duos pour violon et guitare  (Miklòs Szenthelyi, violon - Dàniel Benkö, guitare)
DYEAR=1900
DGENRE=Classique
TTITLE0=Cantabile en ré majrur
TTITLE1=Sonate N°1 en la mineur - Introduzione. Larghetto
TTITLE2=Sonate N°1 en la mineur - Tempo di marcia. Allegro maestoso
TTITLE3=Sonate N°1 en la mineur - Rondocino. Allegro
TTITLE4=Sonate N°2 en ré majeur - Adagio cantabile
TTITLE5=Sonate N°2 en ré majeur - Rondocino. Tempo di polca. Andantino
TTITLE6=Sonate N°3 en do majeur - Introduzione. Prestissimo
TTITLE7=Sonate N°3 en do majeur - Larghetto cantabile
TTITLE8=Sonate concert en la majeur - Allegro spiritoso
TTITLE9=Sonate concert en la majeur - Adagio assai espressivo
TTITLE10=Sonate concert en la majeur - Rondo. Allegretto con brio. Scherzando
TTITLE11=Sonate N°9 en mi majeur - Largo - Andante sostenuto
TTITLE12=Sonate N°9 en mi majeur - Andantino brillante
TTITLE13=Duetto en sol majeur - Larghetto
TTITLE14=Duetto en sol majeur - Andantino
TTITLE15=Duetto en sol majeur - Larghetto de capo
TTITLE16=Sonate en la majeur, Op.3  N°1 - Larghetto
TTITLE17=Sonate en la majeur, Op.3  N°1 - Presto variato
TTITLE18=Sonate N°4 en la majeur - Adagio cantabile
TTITLE19=Sonate N°4 en la majeur - Rondo. Andantino allegetto
EXTD=
EXTT0=
EXTT1=
EXTT2=
EXTT3=
EXTT4=
EXTT5=
EXTT6=
EXTT7=
EXTT8=
EXTT9=
EXTT10=
EXTT11=
EXTT12=
EXTT13=
EXTT14=
EXTT15=
EXTT16=
EXTT17=
EXTT18=
EXTT19=
PLAYORDER=
